/* XPM */
static char * fundo_xpm[] = {
"10 180 33 1",
" 	c None",
".	c #E6E5E7",
"+	c #C7C3D3",
"@	c #D1CEDA",
"#	c #E2E1E5",
"$	c #453481",
"%	c #6B5E99",
"&	c #7B6FA3",
"*	c #9188B1",
"=	c #9E96B9",
"-	c #B2ACC6",
";	c #BAB5CB",
">	c #D6D4DD",
",	c #433380",
"'	c #493983",
")	c #4D3E86",
"!	c #4F4087",
"~	c #54458A",
"{	c #594B8E",
"]	c #5E5091",
"^	c #605292",
"/	c #655895",
"(	c #72669D",
"_	c #8379A8",
":	c #8A81AD",
"<	c #978FB5",
"[	c #A49DBD",
"}	c #AAA4C1",
"|	c #C1BDD0",
"1	c #CCC9D7",
"2	c #DEDDE2",
"3	c #DAD9E0",
"4	c #ECECEB",
"4444444444",
"4444444444",
"..........",
"..........",
"..........",
"..........",
"4444444444",
"4444444444",
"####....##",
"##########",
"##########",
"##########",
"4444444444",
"4444444444",
"2222222222",
"2222222222",
"2222222222",
"2222222222",
"4444444444",
"4444444444",
"3333333333",
"3333333333",
"3333333333",
"3333333333",
"4444444444",
"4444444444",
">>>>>>>>>>",
">>>>>>>>>>",
">>>>>>>>>>",
">>>>>@>>>>",
"4444444444",
"4444444444",
"@@@@@@@@@@",
"@@@@@@@@@@",
"@@@@@@@@@@",
"@@@@@@@@@@",
"4444444444",
"4444444444",
"1111111111",
"1111111111",
"1111111111",
"1111111111",
"4444444444",
"4444444444",
"++++++++++",
"++++++++++",
"++++++++++",
"++++++++++",
"4444444444",
"4444444444",
"||||||||||",
"||||||||||",
"||||||||||",
"||||||||||",
"4444444444",
"4444444444",
";;;;;;;;;;",
";|;;;;;;;;",
";;;;;;;;;;",
";;;;;;;;;;",
"4444444444",
"4444444444",
";;;;;;;;;;",
"-;-;-;--;-",
"--;----;-;",
"----;-----",
"4444444444",
"4444444444",
"----------",
"----------",
"-}--}-}--}",
"}-}-}-}-}-",
"4444444444",
"4444444444",
"}}}}}}}}}}",
"}}}}}}}}}}",
"}}}}}}}}}}",
"}}[}}}}}}}",
"4444444444",
"4444444444",
"[[[[[[[[[[",
"[[[[[[[[[[",
"[[[[[[[[[[",
"[[[[[[[[[[",
"4444444444",
"4444444444",
"==========",
"==========",
"==========",
"==========",
"4444444444",
"4444444444",
"<<<<<<<<<<",
"<<<<<<<<<<",
"<<<<<<<<<<",
"<<<<<<<<<<",
"4444444444",
"4444444444",
"**********",
"**********",
"**********",
"**********",
"4444444444",
"4444444444",
"::::::::::",
"::::::::::",
"::::::::::",
"::::::::::",
"4444444444",
"4444444444",
"__________",
"__________",
"__________",
"__________",
"4444444444",
"4444444444",
"_&__&_&_&_",
"&_&&&&&&_&",
"&&&&_&_&&&",
"&&&&&&&&&&",
"4444444444",
"4444444444",
"&&&&&&&&&&",
"&&&&&&&&&&",
"&((&((&((&",
"((((&((&((",
"4444444444",
"4444444444",
"((((((((((",
"((((((((((",
"((((((((((",
"((%(((((%(",
"4444444444",
"4444444444",
"%%%%%%%%%%",
"%%%%%%%%%%",
"%%%%%%%%%%",
"%%%%%%%%%%",
"4444444444",
"4444444444",
"//////////",
"//////////",
"//////////",
"////////^/",
"4444444444",
"4444444444",
"^^^^^^^^^^",
"^^^^^^^^^^",
"]]]]]]]]]]",
"]]]]]]]]]]",
"4444444444",
"4444444444",
"{{{{{{{{{{",
"{{{{{{{{{{",
"{{{{{{{{{{",
"{{{{{{{{{{",
"4444444444",
"4444444444",
"~~~~~~~~~~",
"~~~~~~~~~~",
"~~~~~~~~~~",
"~~~~~!~!~~",
"4444444444",
"4444444444",
"!!!!!!!!!!",
"!!!!!!!!!!",
"))))))))))",
"))))))))))",
"4444444444",
"4444444444",
"''''''''''",
"''''''''''",
"''''''''''",
"''''''''''",
"4444444444",
"4444444444",
"$$$$$$$$$$",
"$$$$$$$$$$",
",,,,,,,,,,",
",,,,,,,,,,"};
