/* XPM */
static char * check_xpm[] = {
"12 10 6 1",
" 	c None",
".	c #6265CD",
"+	c #FFFFFF",
"@	c #9C99FF",
"#	c #313062",
"$	c #202020",
"         .  ",
"        .+. ",
"       .+@.#",
"  .   .+@.#$",
" @+. .+@.#$ ",
"#.@+.+@.#$  ",
"$#.@+@.#$   ",
" $#.@.#$    ",
"  $#.#$     ",
"   $#$      "};
